<svg xmlns="http://www.w3.org/2000/svg" xmlns:xlink="http://www.w3.org/1999/xlink" width="48" zoomAndPan="magnify" viewBox="0 0 36 36.000001" height="48" preserveAspectRatio="xMidYMid meet" version="1.0"><defs><clipPath id="b012ee85ab"><path d="M 0.488281 0 L 35.511719 0 L 35.511719 35.027344 L 0.488281 35.027344 Z M 0.488281 0 " clip-rule="nonzero"/></clipPath><clipPath id="9cee7952cb"><path d="M 0.488281 0 L 35.511719 0 L 35.511719 34 L 0.488281 34 Z M 0.488281 0 " clip-rule="nonzero"/></clipPath><clipPath id="fefb9e49cc"><path d="M 20.347656 13.410156 L 30.105469 13.410156 L 30.105469 27.050781 L 20.347656 27.050781 Z M 20.347656 13.410156 " clip-rule="nonzero"/></clipPath><clipPath id="2434ed803b"><path d="M 26.476562 14.085938 L 29.5 18.4375 C 30.253906 19.515625 30.253906 20.949219 29.5 22.03125 L 26.476562 26.382812 C 26.191406 26.792969 25.726562 27.035156 25.226562 27.035156 C 24.726562 27.035156 24.261719 26.792969 23.976562 26.382812 L 20.953125 22.03125 C 20.199219 20.949219 20.199219 19.515625 20.953125 18.4375 L 23.976562 14.085938 C 24.261719 13.675781 24.726562 13.433594 25.226562 13.433594 C 25.726562 13.433594 26.191406 13.675781 26.476562 14.085938 Z M 26.476562 14.085938 " clip-rule="nonzero"/></clipPath><clipPath id="3dd5accec6"><path d="M 0.347656 0.410156 L 10.105469 0.410156 L 10.105469 14.050781 L 0.347656 14.050781 Z M 0.347656 0.410156 " clip-rule="nonzero"/></clipPath><clipPath id="87511b2dbc"><path d="M 6.476562 1.085938 L 9.5 5.4375 C 10.253906 6.515625 10.253906 7.949219 9.5 9.03125 L 6.476562 13.382812 C 6.191406 13.792969 5.726562 14.035156 5.226562 14.035156 C 4.726562 14.035156 4.261719 13.792969 3.976562 13.382812 L 0.953125 9.03125 C 0.199219 7.949219 0.199219 6.515625 0.953125 5.4375 L 3.976562 1.085938 C 4.261719 0.675781 4.726562 0.433594 5.226562 0.433594 C 5.726562 0.433594 6.191406 0.675781 6.476562 1.085938 Z M 6.476562 1.085938 " clip-rule="nonzero"/></clipPath><clipPath id="f91c57093a"><rect x="0" width="11" y="0" height="15"/></clipPath><clipPath id="a8f0130177"><path d="M 14.75 7.941406 L 17.855469 7.941406 L 17.855469 25.824219 L 14.75 25.824219 Z M 14.75 7.941406 " clip-rule="nonzero"/></clipPath><clipPath id="e1183928bf"><path d="M 16.300781 7.941406 C 16.714844 7.941406 17.109375 8.105469 17.398438 8.398438 C 17.691406 8.6875 17.855469 9.082031 17.855469 9.496094 L 17.855469 24.269531 C 17.855469 24.679688 17.691406 25.074219 17.398438 25.367188 C 17.109375 25.65625 16.714844 25.820312 16.300781 25.820312 C 15.890625 25.820312 15.496094 25.65625 15.203125 25.367188 C 14.914062 25.074219 14.75 24.679688 14.75 24.269531 L 14.75 9.496094 C 14.75 9.082031 14.914062 8.6875 15.203125 8.398438 C 15.496094 8.105469 15.890625 7.941406 16.300781 7.941406 Z M 16.300781 7.941406 " clip-rule="nonzero"/></clipPath><clipPath id="7a37520b6d"><path d="M 0.75 0.941406 L 3.855469 0.941406 L 3.855469 18.824219 L 0.75 18.824219 Z M 0.75 0.941406 " clip-rule="nonzero"/></clipPath><clipPath id="de9a8f2b16"><path d="M 2.300781 0.941406 C 2.714844 0.941406 3.109375 1.105469 3.398438 1.398438 C 3.691406 1.6875 3.855469 2.082031 3.855469 2.496094 L 3.855469 17.269531 C 3.855469 17.679688 3.691406 18.074219 3.398438 18.367188 C 3.109375 18.65625 2.714844 18.820312 2.300781 18.820312 C 1.890625 18.820312 1.496094 18.65625 1.203125 18.367188 C 0.914062 18.074219 0.75 17.679688 0.75 17.269531 L 0.75 2.496094 C 0.75 2.082031 0.914062 1.6875 1.203125 1.398438 C 1.496094 1.105469 1.890625 0.941406 2.300781 0.941406 Z M 2.300781 0.941406 " clip-rule="nonzero"/></clipPath><clipPath id="2964540038"><rect x="0" width="4" y="0" height="19"/></clipPath></defs><g clip-path="url(#b012ee85ab)"></g><g clip-path="url(#9cee7952cb)"><path stroke-linecap="round" transform="matrix(0.72973, 0, 0, 0.72973, 8.605526, 6.847817)" fill="none" stroke-linejoin="miter" d="M 1.498764 1.498622 L 13.575153 1.498622 C 16.016125 1.498622 18.35539 2.467516 20.079059 4.196538 C 21.808081 5.920207 22.776976 8.259473 22.776976 10.700445 L 22.776976 19.907621 " stroke="#000000" stroke-width="3" stroke-opacity="1" stroke-miterlimit="4"/></g><g clip-path="url(#fefb9e49cc)"><g clip-path="url(#2434ed803b)"><g transform="matrix(1, 0, 0, 1, 20, 13)"><g clip-path="url(#f91c57093a)"><g clip-path="url(#3dd5accec6)"><g clip-path="url(#87511b2dbc)"><path fill="#7ed957" d="M -0.296875 -0.710938 L 10.75 -0.710938 L 10.75 15.171875 L -0.296875 15.171875 Z M -0.296875 -0.710938 " fill-opacity="1" fill-rule="nonzero"/></g></g></g></g></g></g><g clip-path="url(#a8f0130177)"><g clip-path="url(#e1183928bf)"><g transform="matrix(1, 0, 0, 1, 14, 7)"><g clip-path="url(#2964540038)"><g clip-path="url(#7a37520b6d)"><g clip-path="url(#de9a8f2b16)"><path fill="#000000" d="M 0.75 0.941406 L 3.855469 0.941406 L 3.855469 18.824219 L 0.75 18.824219 Z M 0.75 0.941406 " fill-opacity="1" fill-rule="nonzero"/></g></g></g></g></g></g></svg>
